<svg width="21" height="24" viewBox="0 0 21 24" fill="none" xmlns="http://www.w3.org/2000/svg">
<path id="Vector" d="M14.5 2V6.31894M6.16667 2V6.31894M2 10.6379H18.6667M9.29167 14.9568H10.3333V18.196M2 6.31894C2 5.74621 2.21949 5.19694 2.61019 4.79196C3.00089 4.38698 3.5308 4.15947 4.08333 4.15947H16.5833C17.1359 4.15947 17.6658 4.38698 18.0565 4.79196C18.4472 5.19694 18.6667 5.74621 18.6667 6.31894V19.2757C18.6667 19.8485 18.4472 20.3977 18.0565 20.8027C17.6658 21.2077 17.1359 21.4352 16.5833 21.4352H4.08333C3.5308 21.4352 3.00089 21.2077 2.61019 20.8027C2.21949 20.3977 2 19.8485 2 19.2757V6.31894Z" stroke="#F57328" stroke-width="3.75" stroke-linecap="round" stroke-linejoin="round"/>
</svg>
